<svg width="329" height="225" viewBox="0 0 329 225" fill="none" xmlns="http://www.w3.org/2000/svg">
    <g clip-path="url(#clip0_4963_4509)">
        <path fill-rule="evenodd" clip-rule="evenodd"
            d="M194.841 23.9792L195.128 23.817C200.301 20.923 206.859 19.7244 215.46 20.9857L216.203 21.1011C240.673 25.0956 258.933 48.2648 268.151 71.31L268.68 72.6571C285.847 117.167 273.452 165.869 246.81 190.96L245.564 192.112C204.241 229.635 139.676 220.639 104.64 200.028L103.341 199.254C60.9558 173.65 64.2725 142.023 73.3272 129.438L73.781 128.816C88.8054 108.529 108.719 110.895 128.878 106.473L129.487 106.339C149.432 101.888 158.79 95.9756 168.974 72.3874C176.762 54.3449 180.287 32.3785 194.841 23.9792ZM260.448 13.5989L260.73 13.454C270.327 9.08885 308.755 45.3002 300.088 60.8324L299.759 61.4014C288.786 79.6502 267.482 46.6134 260.261 25.6812C257.816 18.5965 258.248 14.8667 260.448 13.5989ZM44.3348 95.8451L44.7194 95.6295C57.3974 88.7547 68.6079 104.371 56.3137 132.941L55.7733 134.177C37.9345 174.258 20.6851 145.419 28.2528 120.918C32.4749 107.247 38.5347 99.192 44.3348 95.8451ZM239.367 0.7826L239.466 0.727792C242.333 -0.762112 247.704 3.1588 248.87 10.2759L248.923 10.6119C250.534 21.5735 240.676 17.3742 238.456 9.72635C236.96 4.56361 237.715 1.7338 239.367 0.7826ZM81.3769 91.123L81.7326 90.9211C93.3977 84.4184 98.3341 92.9648 82.5111 105.019L81.9923 105.41C65.0762 118.001 67.9124 101.014 77.8401 93.4905C78.9681 92.6279 80.1494 91.8372 81.3769 91.123Z"
            fill="#F5F5F9" />
        <mask id="mask0_4963_4509" style="mask-type:luminance" maskUnits="userSpaceOnUse" x="214" y="40" width="7"
            height="7">
            <path d="M214.283 40.5469H220.373V46.6341H214.283V40.5469Z" fill="white" />
        </mask>
        <g mask="url(#mask0_4963_4509)">
            <path fill-rule="evenodd" clip-rule="evenodd"
                d="M219.855 41.8923C220.079 42.224 220.234 42.5964 220.313 42.9882C220.392 43.3799 220.394 43.7835 220.317 44.1757C220.24 44.568 220.086 44.9413 219.865 45.2743C219.644 45.6072 219.359 45.8934 219.027 46.1164C218.696 46.3395 218.323 46.495 217.931 46.5741C217.539 46.6532 217.135 46.6544 216.743 46.5775C216.35 46.5007 215.977 46.3473 215.644 46.1262C215.311 45.9051 215.024 45.6206 214.801 45.2889C214.351 44.619 214.185 43.7976 214.34 43.0054C214.495 42.2133 214.959 41.5152 215.629 41.0648C216.299 40.6143 217.121 40.4485 217.914 40.6037C218.706 40.7589 219.405 41.2224 219.855 41.8923Z"
                fill="#4184F3" />
        </g>
        <path fill-rule="evenodd" clip-rule="evenodd"
            d="M241.208 27.9572C241.426 28.2714 241.578 28.6255 241.657 28.999C241.736 29.3725 241.74 29.758 241.669 30.1332C241.598 30.5083 241.453 30.8656 241.243 31.1843C241.033 31.503 240.761 31.7768 240.444 31.9899C240.127 32.203 239.771 32.351 239.396 32.4255C239.022 32.4999 238.636 32.4993 238.262 32.4236C237.887 32.3479 237.532 32.1987 237.215 31.9846C236.899 31.7705 236.628 31.4958 236.419 31.1764C236.003 30.5415 235.854 29.7683 236.005 29.0245C236.155 28.2806 236.593 27.626 237.223 27.2025C237.853 26.779 238.625 26.6207 239.371 26.762C240.117 26.9033 240.777 27.3327 241.208 27.9572ZM233.994 64.0149C234.205 64.3292 234.353 64.682 234.428 65.0532C234.503 65.4245 234.504 65.8069 234.431 66.1785C234.358 66.5502 234.213 66.904 234.003 67.2195C233.794 67.5351 233.524 67.8063 233.21 68.0176C232.895 68.229 232.542 68.3764 232.171 68.4515C231.799 68.5265 231.417 68.5276 231.045 68.4549C230.673 68.3821 230.319 68.2369 230.004 68.0274C229.688 67.8179 229.417 67.5484 229.205 67.2341C228.778 66.5994 228.621 65.8211 228.768 65.0705C228.915 64.3198 229.354 63.6582 229.989 63.2314C230.624 62.8045 231.403 62.6472 232.154 62.7941C232.905 62.9411 233.566 63.3802 233.994 64.0149ZM255.638 49.5918C255.85 49.9061 255.997 50.2589 256.072 50.6301C256.147 51.0014 256.149 51.3838 256.076 51.7555C256.003 52.1272 255.858 52.4809 255.648 52.7964C255.439 53.112 255.169 53.3832 254.854 53.5946C254.54 53.8059 254.187 53.9534 253.816 54.0284C253.444 54.1034 253.062 54.1046 252.69 54.0318C252.318 53.959 251.964 53.8138 251.648 53.6043C251.333 53.3949 251.061 53.1253 250.85 52.811C250.423 52.1763 250.265 51.398 250.412 50.6474C250.559 49.8967 250.999 49.2352 251.634 48.8083C252.269 48.3814 253.047 48.2241 253.798 48.371C254.549 48.518 255.211 48.9571 255.638 49.5918ZM277.284 34.4476C277.499 34.7618 277.65 35.1157 277.728 35.4886C277.806 35.8616 277.81 36.2463 277.738 36.6206C277.666 36.9948 277.521 37.3512 277.311 37.669C277.101 37.9869 276.83 38.26 276.514 38.4726C276.197 38.6852 275.842 38.833 275.468 38.9075C275.094 38.9821 274.709 38.9818 274.335 38.9068C273.962 38.8318 273.607 38.6836 273.29 38.4706C272.974 38.2577 272.704 37.9842 272.494 37.6661C272.082 37.0312 271.937 36.26 272.089 35.5189C272.24 34.7777 272.678 34.1259 273.306 33.7038C273.934 33.2817 274.703 33.1231 275.447 33.2622C276.191 33.4013 276.85 33.827 277.283 34.4476M298.928 20.0245C299.139 20.3388 299.287 20.6916 299.362 21.0628C299.437 21.4341 299.438 21.8165 299.365 22.1882C299.292 22.5598 299.147 22.9136 298.938 23.2291C298.728 23.5447 298.458 23.8159 298.144 24.0273C297.829 24.2386 297.476 24.386 297.105 24.4611C296.734 24.5361 296.351 24.5373 295.979 24.4645C295.607 24.3917 295.253 24.2465 294.938 24.037C294.622 23.8276 294.351 23.558 294.139 23.2437C293.712 22.609 293.555 21.8307 293.702 21.0801C293.849 20.3294 294.288 19.6679 294.923 19.241C295.558 18.8141 296.337 18.6568 297.088 18.8037C297.839 18.9507 298.501 19.3898 298.928 20.0245ZM249.146 85.6495C249.357 85.9639 249.504 86.3169 249.579 86.6882C249.654 87.0596 249.655 87.4421 249.582 87.8138C249.51 88.1856 249.364 88.5393 249.154 88.8549C248.945 89.1705 248.675 89.4417 248.36 89.653C248.046 89.8643 247.693 90.0117 247.321 90.0866C246.95 90.1615 246.567 90.1625 246.195 90.0896C245.823 90.0168 245.469 89.8714 245.153 89.6618C244.838 89.4521 244.566 89.1824 244.355 88.868C243.928 88.233 243.771 87.4545 243.918 86.7037C244.065 85.9529 244.505 85.2913 245.14 84.8645C245.776 84.4377 246.554 84.2807 247.306 84.4279C248.057 84.5751 248.719 85.0145 249.146 85.6495ZM270.79 71.2264C271.002 71.5408 271.149 71.8938 271.224 72.2652C271.299 72.6365 271.3 73.019 271.227 73.3907C271.154 73.7625 271.009 74.1163 270.799 74.4318C270.589 74.7474 270.32 75.0186 270.005 75.2299C269.69 75.4412 269.337 75.5886 268.966 75.6635C268.594 75.7384 268.212 75.7395 267.84 75.6666C267.468 75.5937 267.114 75.4483 266.798 75.2387C266.482 75.0291 266.211 74.7593 266 74.4449C265.573 73.8099 265.416 73.0314 265.563 72.2806C265.71 71.5298 266.15 70.8682 266.785 70.4414C267.42 70.0146 268.199 69.8576 268.95 70.0048C269.701 70.152 270.363 70.5914 270.79 71.2264ZM292.434 56.0822C292.651 56.3964 292.804 56.7505 292.883 57.124C292.962 57.4975 292.966 57.883 292.895 58.2582C292.824 58.6333 292.679 58.9906 292.469 59.3093C292.258 59.628 291.987 59.9018 291.67 60.1149C291.353 60.328 290.997 60.476 290.622 60.5505C290.248 60.6249 289.862 60.6243 289.488 60.5486C289.113 60.4729 288.757 60.3237 288.441 60.1096C288.125 59.8956 287.854 59.6208 287.645 59.3014C287.229 58.6665 287.08 57.8933 287.231 57.1495C287.381 56.4056 287.819 55.751 288.449 55.3275C289.079 54.904 289.851 54.7458 290.597 54.887C291.343 55.0283 292.003 55.4577 292.434 56.0822ZM314.079 41.6591C314.301 41.9731 314.457 42.3282 314.54 42.7035C314.622 43.0788 314.629 43.4667 314.559 43.8446C314.489 44.2225 314.345 44.5826 314.134 44.9039C313.923 45.2252 313.65 45.5011 313.331 45.7155C313.012 45.9299 312.654 46.0785 312.276 46.1524C311.899 46.2264 311.511 46.2243 311.135 46.1462C310.758 46.0682 310.401 45.9158 310.084 45.6979C309.768 45.4801 309.498 45.2012 309.291 44.8776C308.884 44.2428 308.742 43.474 308.895 42.7358C309.048 41.9976 309.484 41.3487 310.11 40.928C310.736 40.5073 311.502 40.3483 312.244 40.4849C312.986 40.6216 313.644 41.043 314.079 41.6591Z"
            fill="#4184F3" />
        <mask id="mask1_4963_4509" style="mask-type:luminance" maskUnits="userSpaceOnUse" x="279" y="91" width="7"
            height="7">
            <path d="M279.545 91.2656H285.635V97.3536H279.545V91.2656Z" fill="white" />
        </mask>
        <g mask="url(#mask1_4963_4509)">
            <path fill-rule="evenodd" clip-rule="evenodd"
                d="M285.117 92.6107C285.341 92.9424 285.496 93.3147 285.575 93.7065C285.654 94.0982 285.656 94.5017 285.579 94.8939C285.502 95.2862 285.349 95.6594 285.127 95.9924C284.906 96.3253 284.622 96.6115 284.29 96.8345C283.958 97.0576 283.586 97.2131 283.194 97.2922C282.802 97.3713 282.398 97.3725 282.006 97.2957C281.613 97.2189 281.24 97.0656 280.907 96.8445C280.574 96.6235 280.287 96.339 280.064 96.0074C279.613 95.3376 279.447 94.5163 279.603 93.7242C279.758 92.932 280.222 92.234 280.892 91.7836C281.562 91.3331 282.383 91.1672 283.176 91.3224C283.968 91.4775 284.667 91.9409 285.117 92.6107Z"
                fill="#4184F3" />
        </g>
        <path fill-rule="evenodd" clip-rule="evenodd"
            d="M306.865 77.7209C307.076 78.0353 307.223 78.3882 307.298 78.7596C307.373 79.1309 307.374 79.5134 307.301 79.8852C307.228 80.2569 307.083 80.6107 306.873 80.9263C306.664 81.2418 306.394 81.513 306.079 81.7244C305.765 81.9357 305.411 82.083 305.04 82.1579C304.668 82.2329 304.286 82.2339 303.914 82.161C303.542 82.0881 303.188 81.9427 302.872 81.7331C302.557 81.5235 302.285 81.2538 302.074 80.9394C301.647 80.3044 301.49 79.5259 301.637 78.7751C301.784 78.0243 302.224 77.3627 302.859 76.9359C303.494 76.5091 304.273 76.352 305.024 76.4992C305.776 76.6464 306.438 77.0859 306.865 77.7209Z"
            fill="#4184F3" />
        <mask id="mask2_4963_4509" style="mask-type:luminance" maskUnits="userSpaceOnUse" x="322" y="62" width="7"
            height="7">
            <path d="M322.8 62.1953H328.891V68.2833H322.8V62.1953Z" fill="white" />
        </mask>
        <g mask="url(#mask2_4963_4509)">
            <path fill-rule="evenodd" clip-rule="evenodd"
                d="M328.372 63.5404C328.595 63.8721 328.751 64.2444 328.83 64.6362C328.909 65.0279 328.911 65.4314 328.834 65.8236C328.757 66.2158 328.603 66.5891 328.382 66.9221C328.161 67.255 327.877 67.5412 327.545 67.7642C327.213 67.9872 326.84 68.1428 326.448 68.2219C326.057 68.301 325.653 68.3022 325.26 68.2254C324.868 68.1486 324.495 67.9953 324.162 67.7742C323.828 67.5532 323.542 67.2687 323.319 66.9371C322.868 66.2673 322.702 65.446 322.858 64.6538C323.013 63.8617 323.476 63.1637 324.147 62.7133C324.817 62.2628 325.638 62.0969 326.431 62.2521C327.223 62.4072 327.922 62.8706 328.372 63.5404Z"
                fill="#4184F3" />
        </g>
        <g filter="url(#filter0_d_4963_4509)">
            <path
                d="M269.915 44.7109H59.2395C57.6456 44.7109 56.3535 46.0024 56.3535 47.5956V186.057C56.3535 187.65 57.6456 188.942 59.2395 188.942H269.915C271.509 188.942 272.801 187.65 272.801 186.057V47.5956C272.801 46.0024 271.509 44.7109 269.915 44.7109Z"
                fill="rgba(128,128,128,0.411)" />
        </g>
        <path
            d="M269.915 44.7109H59.2395C57.6456 44.7109 56.3535 46.0024 56.3535 47.5956V186.057C56.3535 187.65 57.6456 188.942 59.2395 188.942H269.915C271.509 188.942 272.801 187.65 272.801 186.057V47.5956C272.801 46.0024 271.509 44.7109 269.915 44.7109Z"
            fill="white" />
        <path
            d="M303.026 138.457V88.6971C303.026 87.9321 302.722 87.1984 302.181 86.6574C301.639 86.1164 300.905 85.8125 300.14 85.8125H102.451C101.686 85.8125 100.952 86.1164 100.411 86.6574C99.8695 87.1984 99.5654 87.9321 99.5654 88.6971V138.457M300.14 141.341H102.451"
            stroke="#9B9BAA" stroke-width="2" stroke-linecap="round" stroke-linejoin="bevel" stroke-dasharray="4 15" />
        <g filter="url(#filter1_d_4963_4509)">
            <path
                d="M320.342 66.3438H122.654C121.06 66.3438 119.768 67.6352 119.768 69.2284V118.988C119.768 120.581 121.06 121.873 122.654 121.873H320.342C321.936 121.873 323.228 120.581 323.228 118.988V69.2284C323.228 67.6352 321.936 66.3438 320.342 66.3438Z"
                fill="rgba(128,128,128,0.411)" />
        </g>
        <path
            d="M320.342 66.3438H122.654C121.06 66.3438 119.768 67.6352 119.768 69.2284V118.988C119.768 120.581 121.06 121.873 122.654 121.873H320.342C321.936 121.873 323.228 120.581 323.228 118.988V69.2284C323.228 67.6352 321.936 66.3438 320.342 66.3438Z"
            fill="white" />
        <path
            d="M297.898 82.2109H186.789C185.992 82.2109 185.346 82.8567 185.346 83.6532V89.4225C185.346 90.219 185.992 90.8648 186.789 90.8648H297.898C298.695 90.8648 299.341 90.219 299.341 89.4225V83.6532C299.341 82.8567 298.695 82.2109 297.898 82.2109Z"
            fill="#3F89D7" />
        <path
            d="M239.458 97.3516H186.789C185.992 97.3516 185.346 97.9973 185.346 98.7939V104.563C185.346 105.36 185.992 106.005 186.789 106.005H239.458C240.254 106.005 240.901 105.36 240.901 104.563V98.7939C240.901 97.9973 240.254 97.3516 239.458 97.3516Z"
            fill="#D2D2D2" />
        <path fill-rule="evenodd" clip-rule="evenodd"
            d="M141.124 80.7656H167.674C169.5 80.7656 170.993 82.2663 170.993 84.101V104.113C170.993 105.948 169.5 107.448 167.674 107.448H141.124C139.298 107.448 137.805 105.948 137.805 104.113V84.101C137.805 82.2663 139.298 80.7656 141.124 80.7656Z"
            stroke="#FCB949" stroke-width="4" stroke-linecap="round" stroke-linejoin="round" />
        <path d="M170.993 83.5234L154.399 95.4845L137.805 83.5234" stroke="#FCB949" stroke-width="4"
            stroke-linecap="round" stroke-linejoin="round" />
        <path opacity="0.104" fill-rule="evenodd" clip-rule="evenodd"
            d="M76.8143 26.6797C84.4311 26.6797 90.6056 32.8362 90.6056 40.4306V84.9619C90.6056 92.2181 84.9686 98.1468 77.8236 98.6624L93.7939 124.757L51.7035 98.7143H13.7913C6.17452 98.7143 0 92.5571 0 84.9619V40.4306C0 32.8369 6.17452 26.6797 13.7913 26.6797H76.8143Z"
            fill="#3F89D7" />
        <path fill-rule="evenodd" clip-rule="evenodd"
            d="M47.2032 35.3359C61.7181 35.3359 73.4842 47.0691 73.4842 61.5441C73.4842 63.8179 73.1927 66.0225 72.6473 68.1261H72.6437V68.129C69.7043 79.4612 59.5248 87.59 47.2421 87.59C33.269 87.59 21.9178 76.9725 21.0015 63.2698L20.9871 63.2843C20.9466 62.7051 20.9252 62.1247 20.9229 61.5441C20.9229 52.5081 25.5094 44.5393 32.4869 39.828C33.7093 39.0053 34.9988 38.2869 36.3418 37.6804C39.7532 36.1324 43.4567 35.3329 47.2032 35.3359ZM36.103 46.8297L36.3325 46.3083C33.4656 52.9483 29.3136 58.9563 24.1154 63.9867L23.9279 64.1655L23.9452 64.296C25.417 75.7357 35.1384 84.5208 46.8713 84.7025L47.2429 84.7054C57.6965 84.7054 66.7779 77.8408 69.7375 68.072L69.8421 67.7114C59.304 65.8573 49.864 60.8287 42.551 53.6518C42.2263 53.3323 45.1787 60.7465 44.8973 60.3888C38.9046 52.7734 37.178 49.2874 36.103 46.8297Z"
            fill="#3F89D7" />
        <path fill-rule="evenodd" clip-rule="evenodd"
            d="M260.122 224.998C252.505 224.998 246.331 218.842 246.331 211.247V192.678C246.331 185.421 251.968 179.493 259.113 178.977L243.143 152.883L285.233 178.925H308.715C316.332 178.925 322.507 185.082 322.507 192.678V211.247C322.507 218.841 316.332 224.998 308.715 224.998H260.122Z"
            fill="#FCB949" />
        <path
            d="M261.18 215.623C263.57 215.623 265.508 213.685 265.508 211.296C265.508 208.906 263.57 206.969 261.18 206.969C258.789 206.969 256.851 208.906 256.851 211.296C256.851 213.685 258.789 215.623 261.18 215.623Z"
            fill="white" />
        <path
            d="M277.053 215.623C279.443 215.623 281.382 213.685 281.382 211.296C281.382 208.906 279.443 206.969 277.053 206.969C274.662 206.969 272.724 208.906 272.724 211.296C272.724 213.685 274.662 215.623 277.053 215.623Z"
            fill="white" />
        <path
            d="M292.926 215.623C295.316 215.623 297.255 213.685 297.255 211.296C297.255 208.906 295.316 206.969 292.926 206.969C290.535 206.969 288.597 208.906 288.597 211.296C288.597 213.685 290.535 215.623 292.926 215.623Z"
            fill="white" />
        <path
            d="M308.798 215.623C311.189 215.623 313.127 213.685 313.127 211.296C313.127 208.906 311.189 206.969 308.798 206.969C306.407 206.969 304.469 208.906 304.469 211.296C304.469 213.685 306.407 215.623 308.798 215.623Z"
            fill="white" />
    </g>
    <defs>
        <filter id="filter0_d_4963_4509" x="46.3535" y="36.7109" width="236.447" height="164.23"
            filterUnits="userSpaceOnUse" color-interpolation-filters="sRGB">
            <feFlood flood-opacity="0" result="BackgroundImageFix" />
            <feColorMatrix in="SourceAlpha" type="matrix" values="0 0 0 0 0 0 0 0 0 0 0 0 0 0 0 0 0 0 127 0"
                result="hardAlpha" />
            <feOffset dy="2" />
            <feGaussianBlur stdDeviation="5" />
            <feColorMatrix type="matrix" values="0 0 0 0 0 0 0 0 0 0 0 0 0 0 0 0 0 0 0.15 0" />
            <feBlend mode="normal" in2="BackgroundImageFix" result="effect1_dropShadow_4963_4509" />
            <feBlend mode="normal" in="SourceGraphic" in2="effect1_dropShadow_4963_4509" result="shape" />
        </filter>
        <filter id="filter1_d_4963_4509" x="111.768" y="60.3438" width="219.461" height="71.5273"
            filterUnits="userSpaceOnUse" color-interpolation-filters="sRGB">
            <feFlood flood-opacity="0" result="BackgroundImageFix" />
            <feColorMatrix in="SourceAlpha" type="matrix" values="0 0 0 0 0 0 0 0 0 0 0 0 0 0 0 0 0 0 127 0"
                result="hardAlpha" />
            <feOffset dy="2" />
            <feGaussianBlur stdDeviation="4" />
            <feColorMatrix type="matrix" values="0 0 0 0 0 0 0 0 0 0 0 0 0 0 0 0 0 0 0.2 0" />
            <feBlend mode="normal" in2="BackgroundImageFix" result="effect1_dropShadow_4963_4509" />
            <feBlend mode="normal" in="SourceGraphic" in2="effect1_dropShadow_4963_4509" result="shape" />
        </filter>
        <clipPath id="clip0_4963_4509">
            <rect width="329" height="225" fill="white" />
        </clipPath>
    </defs>
</svg>