<svg width="168" height="251" viewBox="0 0 168 251" fill="none" xmlns="http://www.w3.org/2000/svg">
<path d="M109.16 248.285C109.16 247.076 108.18 246.097 106.972 246.097C105.763 246.097 104.783 247.076 104.783 248.285C104.783 249.494 105.763 250.474 106.972 250.474C108.18 250.474 109.16 249.494 109.16 248.285Z" fill="#F1B357"/>
<path d="M124.441 248.285C124.441 247.076 123.462 246.097 122.253 246.097C121.044 246.097 120.064 247.076 120.064 248.285C120.064 249.494 121.044 250.474 122.253 250.474C123.462 250.474 124.441 249.494 124.441 248.285Z" fill="#F1B357"/>
<path d="M109.16 232.67C109.16 231.461 108.18 230.481 106.972 230.481C105.763 230.481 104.783 231.461 104.783 232.67C104.783 233.879 105.763 234.858 106.972 234.858C108.18 234.858 109.16 233.879 109.16 232.67Z" fill="#F1B357"/>
<path d="M124.441 232.67C124.441 231.461 123.462 230.481 122.253 230.481C121.044 230.481 120.064 231.461 120.064 232.67C120.064 233.879 121.044 234.858 122.253 234.858C123.462 234.858 124.441 233.879 124.441 232.67Z" fill="#F1B357"/>
<path d="M139.723 232.67C139.723 231.461 138.743 230.481 137.534 230.481C136.326 230.481 135.346 231.461 135.346 232.67C135.346 233.879 136.326 234.858 137.534 234.858C138.743 234.858 139.723 233.879 139.723 232.67Z" fill="#F1B357"/>
<path d="M109.16 217.056C109.16 215.847 108.18 214.867 106.972 214.867C105.763 214.867 104.783 215.847 104.783 217.056C104.783 218.264 105.763 219.244 106.972 219.244C108.18 219.244 109.16 218.264 109.16 217.056Z" fill="#F1B357"/>
<path d="M124.441 217.056C124.441 215.847 123.462 214.867 122.253 214.867C121.044 214.867 120.064 215.847 120.064 217.056C120.064 218.264 121.044 219.244 122.253 219.244C123.462 219.244 124.441 218.264 124.441 217.056Z" fill="#F1B357"/>
<path d="M139.723 217.056C139.723 215.847 138.743 214.867 137.534 214.867C136.326 214.867 135.346 215.847 135.346 217.056C135.346 218.264 136.326 219.244 137.534 219.244C138.743 219.244 139.723 218.264 139.723 217.056Z" fill="#F1B357"/>
<path d="M155.049 217.056C155.049 215.847 154.069 214.867 152.86 214.867C151.652 214.867 150.672 215.847 150.672 217.056C150.672 218.264 151.652 219.244 152.86 219.244C154.069 219.244 155.049 218.264 155.049 217.056Z" fill="#F1B357"/>
<path d="M124.441 201.515C124.441 200.306 123.462 199.326 122.253 199.326C121.044 199.326 120.064 200.306 120.064 201.515C120.064 202.723 121.044 203.703 122.253 203.703C123.462 203.703 124.441 202.723 124.441 201.515Z" fill="#F1B357"/>
<path d="M139.723 201.515C139.723 200.306 138.743 199.326 137.534 199.326C136.326 199.326 135.346 200.306 135.346 201.515C135.346 202.723 136.326 203.703 137.534 203.703C138.743 203.703 139.723 202.723 139.723 201.515Z" fill="#F1B357"/>
<path d="M155.049 201.515C155.049 200.306 154.069 199.326 152.86 199.326C151.652 199.326 150.672 200.306 150.672 201.515C150.672 202.723 151.652 203.703 152.86 203.703C154.069 203.703 155.049 202.723 155.049 201.515Z" fill="#F1B357"/>
<path fill-rule="evenodd" clip-rule="evenodd" d="M131.223 8.47316V217.521C131.223 221.798 127.75 225.268 123.476 225.268H9.858C5.58397 225.268 2.11133 221.798 2.11133 217.521V8.47316C2.11133 4.1967 5.58397 0.726562 9.858 0.726562H123.476C127.75 0.726562 131.223 4.1967 131.223 8.47316Z" fill="#4B7CCB"/>
<path fill-rule="evenodd" clip-rule="evenodd" d="M124.703 12.2831V213.722C124.703 216.285 122.622 218.364 120.06 218.364H13.2737C10.7122 218.364 8.63086 216.285 8.63086 213.722V12.2831C8.63086 9.71956 10.7122 7.64062 13.2737 7.64062H120.06C122.622 7.64062 124.703 9.71956 124.703 12.2831Z" fill="#F4F4F8"/>
<path fill-rule="evenodd" clip-rule="evenodd" d="M124.894 12.2837V213.722C124.894 216.383 122.717 218.547 120.059 218.547H13.2725C10.6149 218.547 8.4375 216.383 8.4375 213.722V12.2837C8.4375 9.61804 10.6149 7.4541 13.2725 7.4541H120.059C122.717 7.4541 124.894 9.61804 124.894 12.2837ZM124.51 12.2837C124.51 9.82211 122.525 7.82397 120.059 7.82397H13.2725C10.807 7.82397 8.8218 9.82211 8.8218 12.2837V213.722C8.8218 216.179 10.807 218.177 13.2725 218.177H120.059C122.525 218.177 124.51 216.179 124.51 213.722V12.2837Z" fill="#F4F4F8"/>
<path fill-rule="evenodd" clip-rule="evenodd" d="M4.00051 33.684V55.0331C4.00051 55.2446 3.81532 55.4114 3.63014 55.4114H0.593027C0.407841 55.4114 0.222656 55.2446 0.222656 55.0331V33.684C0.222656 33.4725 0.407841 33.3057 0.593027 33.3057H3.63014C3.81532 33.3057 4.00051 33.4725 4.00051 33.684Z" fill="#3A73CD"/>
<path fill-rule="evenodd" clip-rule="evenodd" d="M4.00051 58.4692V79.8182C4.00051 80.0298 3.81532 80.1965 3.63014 80.1965H0.593027C0.407841 80.1965 0.222656 80.0298 0.222656 79.8182V58.4692C0.222656 58.2576 0.407841 58.0908 0.593027 58.0908H3.63014C3.81532 58.0908 4.00051 58.2576 4.00051 58.4692Z" fill="#3A73CD"/>
<path d="M52.2334 20.7734H19.25V25.7417H52.2334V20.7734Z" fill="#DFDFE4"/>
<path d="M70.7539 32.1406H19.252V37.1089H70.7539V32.1406Z" fill="#DFDFE4"/>
<path d="M115.042 51.873H18.3281V210.435H115.042V51.873Z" fill="#DFDFE4"/>
<path fill-rule="evenodd" clip-rule="evenodd" d="M115.621 51.8728V210.435C115.621 210.769 115.361 211.02 115.042 211.02H18.3284C18.0093 211.02 17.75 210.769 17.75 210.435V51.8728C17.75 51.539 18.0093 51.2881 18.3284 51.2881H115.042C115.361 51.2881 115.621 51.539 115.621 51.8728ZM114.464 52.4576H18.9067V209.85H114.464V52.4576Z" fill="#DFDFE4"/>
<path fill-rule="evenodd" clip-rule="evenodd" d="M167.506 69.2364V142.12C167.506 144.866 165.28 147.089 162.533 147.089H42.8279C40.0812 147.089 37.8555 144.866 37.8555 142.12V69.2364C37.8555 66.4902 40.0812 64.2676 42.8279 64.2676H162.533C165.28 64.2676 167.506 66.4902 167.506 69.2364Z" fill="#4B7CCB"/>
<path fill-rule="evenodd" clip-rule="evenodd" d="M163.056 72.7621V138.76C163.056 141.247 161.04 143.259 158.557 143.259H46.8277C44.3447 143.259 42.3281 141.247 42.3281 138.76V72.7621C42.3281 70.2753 44.3447 68.2627 46.8277 68.2627H158.557C161.04 68.2627 163.056 70.2753 163.056 72.7621Z" fill="#F4F4F8"/>
<path fill-rule="evenodd" clip-rule="evenodd" d="M56.3253 75.7358C56.3253 75.7358 54.7139 75.4868 54.594 77.0676C54.594 77.0676 52.7561 75.7665 51.6641 78.5326C51.6641 78.5326 52.1968 79.8937 53.129 79.4648C53.129 79.4648 52.1701 81.4998 53.5286 82.2616L53.6617 85.0583C53.6617 85.0583 52.3033 85.6097 52.4631 87.3224C52.4631 87.3224 52.3033 88.6648 53.3954 88.521C53.3954 88.521 53.2089 89.2508 54.0613 89.1869H58.7225C58.7225 89.1869 59.2686 89.0963 59.2552 88.521C59.2552 88.521 60.7468 88.1268 60.0543 86.1237C60.0543 86.1237 59.8812 84.8998 59.1221 84.792L58.9889 82.3947C58.9889 82.3947 59.9344 81.6529 59.6548 79.8644C59.6548 79.8644 60.7735 79.0773 60.8534 78.3994C60.8534 78.3994 59.9211 75.584 58.0566 77.0676C58.0566 77.0676 57.6305 75.4415 56.3253 75.7358Z" fill="#DFDFE4"/>
<path d="M140.925 76.2246H68.6641V80.8026H140.925V76.2246Z" fill="#DFDFE4"/>
<path d="M150.193 83.9766H68.6465V88.5546H150.193V83.9766Z" fill="#DFDFE4"/>
<path d="M140.915 101.727H96.2383V106.305H140.915V101.727Z" fill="#DFDFE4"/>
<path d="M145.175 110.244H96.2363V114.822H145.175V110.244Z" fill="#DFDFE4"/>
<path d="M132.792 118.762H96.2363V123.34H132.792V118.762Z" fill="#DFDFE4"/>
<path d="M158.72 127.28H96.2383V131.858H158.72V127.28Z" fill="#DFDFE4"/>
<path d="M103.898 38.051C109.342 38.051 113.755 33.6379 113.755 28.194C113.755 22.7501 109.342 18.3369 103.898 18.3369C98.4542 18.3369 94.041 22.7501 94.041 28.194C94.041 33.6379 98.4542 38.051 103.898 38.051Z" fill="#DFDFE4"/>
<path d="M67.3168 116.347C71.8 116.347 75.4341 112.713 75.4341 108.23C75.4341 103.747 71.8 100.112 67.3168 100.112C62.8336 100.112 59.1992 103.747 59.1992 108.23C59.1992 112.713 62.8336 116.347 67.3168 116.347Z" fill="#DFDFE4"/>
<path fill-rule="evenodd" clip-rule="evenodd" d="M81.9863 133.004H52.6478C52.6478 124.907 59.2138 118.337 67.3152 118.337C75.4204 118.337 81.9863 124.907 81.9863 133.004Z" fill="#DFDFE4"/>
</svg>
